<svg width="50" height="33" viewBox="0 0 50 33" fill="none" xmlns="http://www.w3.org/2000/svg">
<path d="M18.6131 13.6986L4.65332 25.5621V1.83521L18.6131 13.6986Z" fill="#3F37C9"/>
<path opacity="0.9" d="M31.387 13.6986L45.3467 1.83521V25.5621L31.387 13.6986Z" fill="#3F37C9"/>
<path d="M11.6787 26.8457C11.6787 26.8457 15.6827 27.0898 17.4269 28.6846C18.8084 29.9477 19.7079 32.9137 19.7079 32.9137C19.7079 32.9137 15.4506 33.0318 13.686 31.3508C12.2953 30.0258 11.6787 26.8457 11.6787 26.8457Z" fill="#3F37C9"/>
<path d="M38.3212 26.8457C38.3212 26.8457 34.3172 27.0898 32.573 28.6846C31.1915 29.9477 30.292 32.9137 30.292 32.9137C30.292 32.9137 34.5492 33.0318 36.3137 31.3508C37.7045 30.0258 38.3212 26.8457 38.3212 26.8457Z" fill="#3F37C9"/>
</svg>
